<svg width="26" height="24" viewBox="0 0 26 24" fill="none" xmlns="http://www.w3.org/2000/svg">
<path fill-rule="evenodd" clip-rule="evenodd" d="M0 3.46667C0 1.55208 1.55208 0 3.46667 0H22.5333C24.4479 0 26 1.55208 26 3.46667V16.9519C26 18.8665 24.4479 20.4185 22.5333 20.4185H12.7044L7.51212 24L6.8175 20.4185H3.46667C1.55208 20.4185 0 18.8665 0 16.9519V3.46667ZM6.33337 12.353C7.43794 12.353 8.33337 11.4576 8.33337 10.353C8.33337 9.24845 7.43794 8.35302 6.33337 8.35302C5.2288 8.35302 4.33337 9.24845 4.33337 10.353C4.33337 11.4576 5.2288 12.353 6.33337 12.353ZM15.2667 10.353C15.2667 11.4576 14.3713 12.353 13.2667 12.353C12.1622 12.353 11.2667 11.4576 11.2667 10.353C11.2667 9.24845 12.1622 8.35302 13.2667 8.35302C14.3713 8.35302 15.2667 9.24845 15.2667 10.353ZM20.2 12.353C21.3045 12.353 22.2 11.4576 22.2 10.353C22.2 9.24845 21.3045 8.35302 20.2 8.35302C19.0954 8.35302 18.2 9.24845 18.2 10.353C18.2 11.4576 19.0954 12.353 20.2 12.353Z" fill="white"/>
</svg>
