<svg width="20" height="21" viewBox="0 0 20 21" fill="none" xmlns="http://www.w3.org/2000/svg">
<path d="M11 1C11 0.447715 10.5523 2.41411e-08 10 0C9.44772 -2.41411e-08 9 0.447715 9 1L11 1ZM9.29289 15.7071C9.68342 16.0976 10.3166 16.0976 10.7071 15.7071L17.0711 9.34315C17.4616 8.95262 17.4616 8.31946 17.0711 7.92893C16.6805 7.53841 16.0474 7.53841 15.6569 7.92893L10 13.5858L4.34315 7.92893C3.95262 7.53841 3.31946 7.53841 2.92893 7.92893C2.53841 8.31946 2.53841 8.95262 2.92893 9.34315L9.29289 15.7071ZM9 1L9 15L11 15L11 1L9 1Z" fill="url(#paint0_linear_241_565)"/>
<line x1="1" y1="20" x2="19" y2="20" stroke="url(#paint1_linear_241_565)" stroke-width="2" stroke-linecap="round"/>
<defs>
<linearGradient id="paint0_linear_241_565" x1="10" y1="15" x2="10" y2="1" gradientUnits="userSpaceOnUse">
<stop stop-color="#FF8F08"/>
<stop offset="1" stop-color="#F73603"/>
</linearGradient>
<linearGradient id="paint1_linear_241_565" x1="20" y1="21" x2="0" y2="21" gradientUnits="userSpaceOnUse">
<stop stop-color="#FF8F08"/>
<stop offset="1" stop-color="#F73603"/>
</linearGradient>
</defs>
</svg>
