<svg xmlns="http://www.w3.org/2000/svg">
    <symbol id="facebook" viewBox="0 0 24 24">
        <path d="M17.6 7.771h-3.814v-2.49c0-.936.622-1.154 1.06-1.154h2.692V.015L13.831 0C9.716 0 8.78 3.067 8.78 5.03v2.741H6.4v4.238h2.38V24h5.006V12.009H17.6V7.77z" fill-rule="evenodd"></path>
    </symbol>
    <symbol id="line" viewBox="0 0 24 24">
        <path d="M12 2c6.065 0 11 4.012 11 8.943 0 1.973-.764 3.75-2.358 5.502l-.187.211c-2.39 2.619-7.312 5.704-8.455 6.187-1.174.496-1-.316-.953-.594l.157-.944c.037-.281.075-.717-.036-.996-.123-.307-.61-.466-.968-.543-5.287-.7-9.2-4.402-9.2-8.823C1 6.012 5.935 2 12 2zM9.765 8.56h-.772a.215.215 0 00-.214.214v4.802c0 .118.096.214.214.214h.772a.214.214 0 00.214-.214V8.774a.214.214 0 00-.214-.214zm1.95 0h-.771a.215.215 0 00-.215.214v4.802c0 .118.096.214.215.214h.771a.214.214 0 00.214-.214v-2.852l2.2 2.976a.216.216 0 00.054.052l.002.002a.234.234 0 00.02.012l.01.005.01.004a.066.066 0 00.007.002l.014.005h.004a.206.206 0 00.054.008h.772a.214.214 0 00.214-.214V8.774a.214.214 0 00-.214-.214h-.772a.214.214 0 00-.214.214v2.853l-2.197-2.972a.235.235 0 00-.016-.021l-.001-.002a.22.22 0 00-.013-.013l-.002-.002-.014-.011-.005-.004-.006-.004c-.007-.006-.01-.007-.012-.008a.262.262 0 00-.011-.007c-.003 0-.005-.002-.007-.003a.18.18 0 00-.02-.007l-.012-.005-.008-.002a.097.097 0 00-.012-.002l-.009-.002-.011-.001h-.011l-.008-.001zm-6.12 0h-.772a.215.215 0 00-.215.214v4.802c0 .057.024.11.06.148l.002.002.004.004a.215.215 0 00.093.053l.056.007h3.082a.214.214 0 00.214-.214v-.774a.214.214 0 00-.214-.214H5.81V8.774a.214.214 0 00-.215-.214zm13.742 0h-3.083a.213.213 0 00-.148.06l-.003.003a.216.216 0 00-.056.096l-.007.056v4.8c0 .058.023.11.06.15l.003.002.003.003a.216.216 0 00.093.053l.055.007h3.083a.214.214 0 00.214-.214v-.773a.214.214 0 00-.214-.215H17.24v-.812h2.097a.214.214 0 00.214-.215v-.772a.214.214 0 00-.214-.215H17.24v-.812h2.097a.214.214 0 00.214-.214v-.773a.214.214 0 00-.214-.215z" fill-rule="evenodd"></path>
    </symbol>
    <symbol id="twitter" viewBox="0 0 24 24">
        <path d="M24 4.767c-1.48.795-1.832.674-2.828.795a5.04 5.04 0 002.165-2.793 9.71 9.71 0 01-3.127 1.226A4.861 4.861 0 0016.616 2.4c-2.719 0-4.924 2.261-4.924 5.049 0 .396.044.78.128 1.15C7.728 8.39 4.1 6.38 1.671 3.324a5.122 5.122 0 00-.667 2.538c0 1.752.87 3.297 2.19 4.203a4.808 4.808 0 01-2.23-.632v.064c0 2.446 1.697 4.487 3.95 4.95a4.816 4.816 0 01-2.224.087C3.317 16.54 5.135 18 7.29 18.04A9.725 9.725 0 010 20.132 13.687 13.687 0 007.548 22.4c9.057 0 14.01-7.694 14.01-14.366a15.3 15.3 0 00-.014-.653A10.137 10.137 0 0024 4.767" fill-rule="evenodd"></path>
    </symbol>
    <symbol id="link" viewBox="0 0 24 24">
        <path d="M20.036 10.896l-3.657 3.655a5.168 5.168 0 01-7.311 0 5.147 5.147 0 01-.785-1.043l1.699-1.699c.08-.081.18-.128.276-.183.117.402.322.782.638 1.097a2.588 2.588 0 003.655 0l3.656-3.655a2.587 2.587 0 000-3.656 2.588 2.588 0 00-3.656 0l-1.3 1.301a6.484 6.484 0 00-3.298-.36l2.77-2.77a5.171 5.171 0 017.313 7.313zm-9.667 6.01l-1.301 1.302a2.59 2.59 0 01-3.656 0 2.59 2.59 0 010-3.657l3.656-3.655a2.586 2.586 0 013.655 0c.315.315.52.695.64 1.095.095-.055.194-.1.274-.181l1.7-1.699a5.086 5.086 0 00-.786-1.043 5.17 5.17 0 00-7.312 0l-3.655 3.655a5.171 5.171 0 007.312 7.313l2.77-2.77a6.482 6.482 0 01-3.297-.36z" fill-rule="nonzero"></path>
    </symbol>
    <symbol id="youtube" viewBox="-21 -117 682.667 682">
        <path d="M626.813 64.035c-7.375-27.418-28.993-49.031-56.407-56.414C520.324-6.082 319.992-6.082 319.992-6.082s-200.324 0-250.406 13.184c-26.887 7.375-49.031 29.52-56.406 56.933C0 114.113 0 217.97 0 217.97s0 104.379 13.18 153.933c7.382 27.414 28.992 49.028 56.41 56.41C120.195 442.02 320 442.02 320 442.02s200.324 0 250.406-13.184c27.418-7.379 49.032-28.992 56.414-56.406 13.176-50.082 13.176-153.934 13.176-153.934s.527-104.383-13.183-154.46zM256.21 313.915V122.022l166.586 95.946zm0 0"></path>
    </symbol>
    <symbol id="instagram" viewBox="0 0 511 511.9">
        <path d="M510.95 150.5c-1.2-27.2-5.598-45.898-11.9-62.102-6.5-17.199-16.5-32.597-29.6-45.398-12.802-13-28.302-23.102-45.302-29.5-16.296-6.3-34.898-10.7-62.097-11.898C334.648.3 325.949 0 256.449 0s-78.199.3-105.5 1.5c-27.199 1.2-45.898 5.602-62.097 11.898-17.204 6.5-32.602 16.5-45.403 29.602-13 12.8-23.097 28.3-29.5 45.3-6.3 16.302-10.699 34.9-11.898 62.098C.75 177.801.449 186.5.449 256s.301 78.2 1.5 105.5c1.2 27.2 5.602 45.898 11.903 62.102 6.5 17.199 16.597 32.597 29.597 45.398 12.801 13 28.301 23.102 45.301 29.5 16.3 6.3 34.898 10.7 62.102 11.898 27.296 1.204 36 1.5 105.5 1.5s78.199-.296 105.5-1.5c27.199-1.199 45.898-5.597 62.097-11.898a130.934 130.934 0 0074.903-74.898c6.296-16.301 10.699-34.903 11.898-62.102 1.2-27.3 1.5-36 1.5-105.5s-.102-78.2-1.3-105.5zm-46.098 209c-1.102 25-5.301 38.5-8.801 47.5-8.602 22.3-26.301 40-48.602 48.602-9 3.5-22.597 7.699-47.5 8.796-27 1.204-35.097 1.5-103.398 1.5s-76.5-.296-103.403-1.5c-25-1.097-38.5-5.296-47.5-8.796C94.551 451.5 84.45 445 76.25 436.5c-8.5-8.3-15-18.3-19.102-29.398-3.5-9-7.699-22.602-8.796-47.5-1.204-27-1.5-35.102-1.5-103.403s.296-76.5 1.5-103.398c1.097-25 5.296-38.5 8.796-47.5C61.25 94.199 67.75 84.1 76.352 75.898c8.296-8.5 18.296-15 29.398-19.097 9-3.5 22.602-7.7 47.5-8.801 27-1.2 35.102-1.5 103.398-1.5 68.403 0 76.5.3 103.403 1.5 25 1.102 38.5 5.3 47.5 8.8 11.097 4.098 21.199 10.598 29.398 19.098 8.5 8.301 15 18.301 19.102 29.403 3.5 9 7.699 22.597 8.8 47.5 1.2 27 1.5 35.097 1.5 103.398s-.3 76.301-1.5 103.301zm0 0"></path>
        <path d="M256.45 124.5c-72.598 0-131.5 58.898-131.5 131.5s58.902 131.5 131.5 131.5c72.6 0 131.5-58.898 131.5-131.5s-58.9-131.5-131.5-131.5zm0 216.8c-47.098 0-85.302-38.198-85.302-85.3s38.204-85.3 85.301-85.3c47.102 0 85.301 38.198 85.301 85.3s-38.2 85.3-85.3 85.3zm0 0M423.852 119.3c0 16.954-13.747 30.7-30.704 30.7-16.953 0-30.699-13.746-30.699-30.7 0-16.956 13.746-30.698 30.7-30.698 16.956 0 30.703 13.742 30.703 30.699zm0 0"></path>
    </symbol>
    <symbol id="up" viewBox="0 0 24 24">
        <path d="M.582 18.31a1.387 1.387 0 001.849-.103l9.568-9.595 9.57 9.596a1.387 1.387 0 101.964-1.959L12.982 5.669a1.385 1.385 0 00-1.964-.001L.467 16.248c-.54.543-.54 1.42.002 1.962l.113.1z"></path>
    </symbol>
    <symbol id="down" viewBox="0 0 24 24">
        <path d="M23.418 5.627a1.387 1.387 0 00-1.849.104l-9.568 9.595L2.43 5.73A1.387 1.387 0 10.467 7.69l10.551 10.58a1.385 1.385 0 001.964 0L23.533 7.69c.54-.542.54-1.42-.002-1.961l-.113-.101z"></path>
    </symbol>
    <symbol id="left" viewBox="0 0 24 24">
        <path d="M18.373.52a1.387 1.387 0 01-.104 1.848l-9.595 9.57 9.596 9.57a1.387 1.387 0 11-1.959 1.963L5.731 12.92a1.385 1.385 0 010-1.964L16.31.405c.542-.54 1.42-.54 1.961.002l.101.113z"></path>
    </symbol>
    <symbol id="right" viewBox="0 0 24 24">
        <path d="M5.627.52a1.387 1.387 0 00.104 1.848l9.595 9.57-9.596 9.57A1.387 1.387 0 107.69 23.47l10.58-10.551a1.385 1.385 0 000-1.964L7.69.405a1.387 1.387 0 00-1.961.002L5.627.52z"></path>
    </symbol>
    <symbol id="arrow-left" viewBox="0 0 24 24">
        <path d="M9.688 21.711L0 12.154l9.684-9.557a.863.863 0 011.211 0 .838.838 0 010 1.194l-7.614 7.517h19.873a.846.846 0 010 1.692H3.28l7.62 7.521a.836.836 0 01-.003 1.192.863.863 0 01-1.21-.002z" fill-rule="evenodd"></path>
    </symbol>
    <symbol id="arrow-right" viewBox="0 0 24 20">
        <path d="M14.312 19.711L24 10.154 14.316.597a.863.863 0 00-1.211 0 .838.838 0 000 1.194l7.614 7.517H.846a.846.846 0 000 1.692H20.72l-7.62 7.521a.836.836 0 00.003 1.192c.336.33.875.33 1.21-.002z" fill-rule="evenodd"></path>
    </symbol>
    <symbol id="polygon" viewBox="0 0 24 26">
        <path d="M37 14l11.258 6.5v13L37 40l-11.258-6.5v-13z" transform="translate(-25 -14)" fill-rule="nonzero"></path>
    </symbol>
    <symbol id="user" viewBox="0 0 15 15">
        <path d="M14.738 12.71c-.964-2.013-2.833-3.52-5.1-4.113V7.542l1.874-2.997v-.879l-1.64-2.61-.806-.431H5.934l-.815.448-1.556 2.575v.88l1.874 3.014v1.046C3.14 9.175 1.252 10.708.3 12.754l-.3.65.863 1.23h13.34l.863-1.238-.329-.686z"></path>
    </symbol>
    <symbol id="search" viewBox="0 0 15 15">
        <path d="M13.259 13.73l-2.444-4.298L12.8 6.026v-1.34L10.418.652 9.279 0H4.682L3.535.67 1.25 4.704v1.323l2.391 4.006 1.138.644h3.697L10.956 15l2.303-1.27zM3.897 5.337l1.562-2.69H8.52l1.605 2.717-1.561 2.647H5.538l-1.64-2.674z"></path>
    </symbol>
    <symbol id="gps" viewBox="0 0 15 15">
        <path d="M13.017 4.963l-2.5-4.167-.7-.442H5.075L4.35.78 1.967 4.963v.833l4.466 8.408.742.442h.683l.775-.442 4.4-8.433c-.008-.284-.008-.517-.016-.808zm-5.609 2.1a2.117 2.117 0 110-4.234 2.117 2.117 0 010 4.233z"></path>
    </symbol>
    <symbol id="play-btn" viewBox="0 0 83 83">
        <path fill-rule="nonzero" d="M41.129 0L61.215 5.739 76.519 20.086 82.258 41.129 76.519 61.215 61.694 76.519 41.129 82.258 21.043 76.519 5.739 61.215 0 41.129 5.739 20.086 20.086 5.739z"></path>
        <path fill="#FFF" d="M54.793 42.114l-21.01 11.961c-.247.135-.454.155-.625.058-.17-.097-.255-.29-.255-.58V29.687c0-.271.085-.465.255-.581.17-.116.378-.097.624.058l21.01 11.961c.246.136.37.3.37.494s-.124.358-.37.494z"></path>
    </symbol>
    <symbol id="hexagonal" viewBox="0 0 40 46">
        <path d="M20 .5l19.486 11.25v22.5L20 45.5.514 34.25v-22.5z" fill-rule="nonzero"></path>
    </symbol>
    <symbol id="close" viewBox="0 0 22 19">
        <path d="M16.716 3.784c.19.19.284.427.284.71a.964.964 0 01-.284.711L12.42 9.5l4.295 4.295c.19.19.284.426.284.71a.964.964 0 01-.284.71.964.964 0 01-.71.285.964.964 0 01-.711-.284L11 10.92l-4.295 4.295a.964.964 0 01-.71.284.964.964 0 01-.71-.284.964.964 0 01-.285-.71c0-.285.095-.522.284-.711L9.58 9.5 5.284 5.205A.964.964 0 015 4.495c0-.284.095-.521.284-.71a.964.964 0 01.71-.285c.285 0 .522.095.711.284L11 8.08l4.295-4.295a.964.964 0 01.71-.284c.284 0 .521.095.71.284z" fill-rule="evenodd"></path>
    </symbol>
    <symbol id="contact" viewBox="0 0 22 19">
        <path d="M14.381.5l.512.222 3.62 3.79.212.535v1.705H21.8v5.817h-4.525l-.001-.005-3.033 3.175V18.5H9.173v-3.221l3.46-.001 4.641-4.858V6.753l.003-.001v-1.39l-3.196-3.347H7.92L4.724 5.362v1.39h.001v5.817H.2V6.753l3.076-.001V5.047l.212-.536L7.108.722 7.622.5h6.76z" fill-rule="evenodd"></path>
    </symbol>
    <symbol id="download" viewBox="0 0 24 24">
        <path d="M15.3 10.7l-.5-.7-2.4 1.7V5.6h-.8v6.1L9.2 10l-.5.7L12 13zM7.5 14.4h9v.8h-9z"></path>
        <path d="M12 0C5.4 0 0 5.4 0 12s5.4 12 12 12 12-5.4 12-12S18.6 0 12 0zm0 23.2C5.8 23.2.8 18.2.8 12S5.8.8 12 .8s11.2 5 11.2 11.2-5 11.2-11.2 11.2z"></path>
    </symbol>
    <symbol id="quote-bot" viewBox="0 0 24 24">
        <path d="M6.276 18.372L11.46 5.628H5.412l-3.24 12.744h4.104zm10.368 0l5.184-12.744H15.78l-3.24 12.744h4.104z" fill-rule="nonzero"></path>
    </symbol>
    <symbol id="quote-top" viewBox="0 0 24 24">
        <path d="M17.724 5.628L12.54 18.372h6.048l3.24-12.744h-4.104zm-10.368 0L2.172 18.372H8.22l3.24-12.744H7.356z" fill-rule="nonzero"></path>
    </symbol>
    <symbol id="banner-left" viewBox="0 0 16 16">
        <path d="M3.624 8.013a.44.44 0 00.135.324l7.028 7.028a.44.44 0 00.323.135.536.536 0 00.35-.135l.755-.754a.489.489 0 00.161-.35.489.489 0 00-.161-.35L6.317 8.013l5.898-5.924a.408.408 0 00.161-.323.489.489 0 00-.161-.35L11.46.662A.434.434 0 0011.11.5a.362.362 0 00-.324.162L3.76 7.663a.474.474 0 00-.135.35z" fill-rule="evenodd"/>
    </symbol>
    <symbol id="banner-right" viewBox="0 0 16 16">
        <path d="M12.376 8.013a.44.44 0 01-.135.324l-7.028 7.028a.44.44 0 01-.323.135.536.536 0 01-.35-.135l-.755-.754a.489.489 0 01-.161-.35c0-.125.054-.242.161-.35l5.898-5.898L3.785 2.09a.408.408 0 01-.161-.323c0-.126.054-.243.161-.35L4.54.662A.434.434 0 014.89.5c.144 0 .252.054.324.162l7.028 7.001c.09.09.135.207.135.35z" fill-rule="evenodd"></path>
    </symbol>
    <symbol id="quick-link" viewBox="0 0 24 24">
        <path d="M2.3 19.5l8.3 4.5h2.8l8.3-4.9 1.3-2.3V7.3l-1.4-2.4L13.3.2h-2.7l-8.2 5L1 7.5v10.1l1.3 1.9zM12 2.9l7.9 4.6v9l-8 4.7-7.8-4.6V7.7L12 2.9zM12 4l1.1.6v5.3l4.5-2.7 1.5.9v.8L13.9 12l5.2 2.9v1.3l-1.1.6-4.9-2.8v5.7l-1.1.7-1.1-.6v-6l-5.1 3-.8-.5v-1.6L9.5 12 5 9.5V8.3l1.1-.7 4.7 2.7V4.7L12 4z"></path>
    </symbol>
</svg>