<?xml version="1.0" encoding="utf-8"?>
<!-- Generator: Adobe Illustrator 27.0.1, SVG Export Plug-In . SVG Version: 6.00 Build 0)  -->
<svg version="1.1" id="圖層_1" xmlns="http://www.w3.org/2000/svg" xmlns:xlink="http://www.w3.org/1999/xlink" x="0px" y="0px"
	 viewBox="0 0 379 143" style="enable-background:new 0 0 379 143;" xml:space="preserve">
<style type="text/css">
	.st0{fill:#D61C17;}
	.st1{fill:#E7350D;}
	.st2{fill:#DC4B91;}
	.st3{fill:#444297;}
	.st4{fill:#5C519F;}
	.st5{fill:#F19000;}
	.st6{fill:#EB6300;}
	.st7{fill:#004D5B;}
	.st8{fill:#F9BE00;}
	.st9{fill:#008776;}
	.st10{fill:#FFDC00;}
	.st11{fill:#5CBDA8;}
	.st12{fill:#00A374;}
	.st13{fill:#F49F00;}
	.st14{fill:#CE186C;}
	.st15{fill:#1C276B;}
</style>
<g>
	<polygon class="st0" points="97.14,83.2 73.41,69.5 73.41,96.91 	"/>
	<polygon class="st1" points="49.67,83.2 49.67,83.2 73.41,96.91 73.41,69.5 	"/>
	<polygon class="st2" points="108.73,69.5 104,51.84 97.14,55.8 	"/>
	<polygon class="st3" points="97.14,83.2 91.07,100.09 104,87.16 	"/>
	<polygon class="st4" points="104,87.16 108.73,69.5 97.14,83.2 	"/>
	<polygon class="st5" points="73.41,42.09 49.67,55.8 73.41,69.5 	"/>
	<polygon class="st1" points="97.14,83.2 97.14,55.8 73.41,69.5 	"/>
	<polygon class="st6" points="49.67,55.8 49.67,83.2 73.41,69.5 	"/>
	<polygon class="st7" points="73.41,104.82 91.07,100.09 73.41,96.91 	"/>
	<polygon class="st8" points="97.14,55.8 104,51.84 91.07,38.91 	"/>
	<polygon class="st6" points="97.14,55.8 97.14,55.8 73.41,42.1 73.41,69.5 	"/>
	<polygon class="st8" points="42.82,51.84 38.09,69.5 49.68,55.8 	"/>
	<polygon class="st9" points="73.41,96.91 55.75,100.09 73.41,104.82 	"/>
	<polygon class="st10" points="49.67,55.8 55.75,38.91 42.82,51.84 	"/>
	<polygon class="st10" points="73.41,34.18 55.75,38.91 73.41,42.09 	"/>
	<polygon class="st8" points="38.09,69.5 42.82,87.16 49.67,83.2 	"/>
	<polygon class="st11" points="49.67,83.2 42.82,87.16 55.75,100.09 	"/>
	<polygon class="st8" points="91.07,38.91 73.41,34.18 73.41,42.09 	"/>
	<polygon class="st4" points="73.41,96.91 91.07,100.09 97.14,83.2 	"/>
	<polygon class="st12" points="49.67,83.2 55.75,100.09 73.41,96.91 	"/>
	<polygon class="st13" points="97.14,55.8 91.07,38.91 73.41,42.1 	"/>
	<polygon class="st14" points="97.14,55.8 97.14,83.2 108.73,69.5 	"/>
	<polygon class="st8" points="73.41,42.09 55.75,38.91 49.67,55.8 	"/>
	<polygon class="st13" points="49.67,83.2 49.67,55.8 38.09,69.5 	"/>
</g>
<g>
	<g>
		<g>
			<path class="st15" d="M284.95,54.34v-9.28h-19.62v9.28H284.95z M269.32,48.55h11.63v2.3h-11.63V48.55z"/>
			<polygon class="st15" points="289.59,54.74 293.68,54.74 293.68,43.06 297.87,43.06 297.87,39.12 262.08,39.12 262.08,43.06 
				289.59,43.06 			"/>
			<path class="st15" d="M132.3,75.06h27.15c3.39,0,5.89-2,5.89-5.29V59.14H132.3V75.06z M136.64,63.38H161v5.19
				c0,1.75-0.85,2.25-2.5,2.25h-21.86V63.38z"/>
			<path class="st15" d="M158.46,45.86l2.79,4.94h-24.96v-0.9c0-1.75,0.9-2.9,2.25-3.54l10.48-5.14l-1.95-3.99l-10.88,5.39
				c-3.34,1.65-4.64,4.14-4.64,7.49v5.09h32.18l1.21,2.15l3.84-2l-6.49-11.33L158.46,45.86z"/>
			<path class="st15" d="M260.19,60.18h29.4v7.74c0,4.19-2.95,5.09-6.94,5.09v4.09h0.65c6.74,0,10.38-3.04,10.38-9.18v-7.74h4.99
				v-3.84h-38.49V60.18z"/>
			<path class="st15" d="M239.34,51.4h16.11v-4.49h-16.12v-8.44h-4.59v8.44h-15.77v4.49h15.55c-1.44,7.93-4.29,16.07-16.8,20.82
				l2.2,4.09c11.84-4.45,15.58-11.61,17.34-18.56c2.64,7.27,8.11,14.85,17.1,18.56l2.4-4.19C245.87,67.15,241.01,58.6,239.34,51.4z"
				/>
			<path class="st15" d="M284.95,62.18h-20.02v9.58h20.02V62.18z M280.95,68.27h-12.03v-2.6h12.03V68.27z"/>
			<path class="st15" d="M323.1,51.4h16.11v-4.49h-16.12v-8.44h-4.64v8.44h-15.72v4.49h15.55c-1.44,7.93-4.29,16.07-16.8,20.82
				l2.2,4.09c11.84-4.45,15.58-11.61,17.34-18.56c2.64,7.27,8.11,14.85,17.1,18.56l2.4-4.19C329.63,67.15,324.77,58.6,323.1,51.4z"
				/>
			<path class="st15" d="M177.4,62.03c0,5.89-0.9,9.38-5.19,11.23l2.45,3.34c5.89-2.25,6.74-8.04,6.74-15.12v-0.35h-3.99V62.03z"/>
			<polygon class="st15" points="173.21,40.37 179.2,47.06 182.14,44.31 176.15,37.82 			"/>
			<polygon class="st15" points="173.01,50.75 178.9,57.39 181.94,54.64 176,48.2 			"/>
			<path class="st15" d="M188.55,65.87h21.94v-7.89h-26.26v3.19h22.21v1.6h-21.31l-1.75,9.33l3.94,0.65l0.32-1.8h20.31
				c-0.6,1.41-2.69,2.16-8.65,2.25v3.64h0.45c8.94,0,12.38-2.5,12.38-7.39v-1.9h-23.89L188.55,65.87z"/>
		</g>
		<polygon class="st15" points="191.85,42.12 191.85,39.19 195.95,39.19 195.95,37.57 199.17,37.57 199.17,39.19 203.32,39.19 
			203.32,42.12 		"/>
		<polygon class="st15" points="199.04,56.33 199.04,54.7 196.14,54.7 196.14,56.33 193.27,56.33 193.27,51.76 201.91,51.76 
			201.91,56.33 		"/>
		<rect x="193.64" y="47.59" class="st15" width="7.89" height="2.91"/>
		<rect x="193.64" y="43.41" class="st15" width="7.89" height="2.91"/>
		<path class="st15" d="M188.85,53.28h-2.24v-0.12c0-0.45,0-1.12,0.42-1.66l5.37-6.44l-2.23-1.76l-2.03,2.37h-1.52v-0.78
			c0-0.54,0.15-0.97,0.47-1.35l3-3.79l-2.27-1.8l-3.54,4.28c-0.63,0.75-0.91,1.53-0.91,2.55v3.33h2.67l-1.66,1.93
			c-0.74,0.82-1.06,1.86-1.06,3.37v2.92h8.7v-5.67h-3.16V53.28z"/>
		<path class="st15" d="M208.7,53.28h-2.24v-0.12c0-0.45,0-1.12,0.42-1.66l5.37-6.44l-2.23-1.76l-2.03,2.37h-1.52v-0.78
			c0-0.54,0.15-0.97,0.47-1.35l3-3.79l-2.27-1.8l-3.54,4.28c-0.63,0.75-0.91,1.53-0.91,2.55v3.33h2.67l-1.66,1.93
			c-0.74,0.82-1.06,1.86-1.06,3.37v2.92h8.7v-5.67h-3.16V53.28z"/>
	</g>
	<g>
		<g>
			<g>
				<path class="st15" d="M312.08,92.8l-1.19-0.42l-0.33,0.07h-6.77V86.9h5.69v2.28c0,0.26-0.11,0.33-0.46,0.33
					c-0.31,0.02-1.54,0.02-2.75-0.02c0.24,0.48,0.55,1.21,0.64,1.73c1.63,0,2.8,0,3.57-0.29c0.77-0.26,0.97-0.79,0.97-1.73v-4.21
					h-9.59v19.31h1.94v-1.56c0.42,0.35,0.93,1.01,1.19,1.47c1.15-0.68,2.16-1.54,3.09-2.59c0.97,1.1,2.09,2.02,3.35,2.7
					c0.31-0.5,0.86-1.21,1.32-1.58c-1.32-0.61-2.49-1.54-3.5-2.63C310.56,98.16,311.55,95.74,312.08,92.8z M303.79,102.7v-8.38h0.4
					c0.66,2.15,1.57,4.13,2.73,5.79C306,101.21,304.94,102.11,303.79,102.7z M308.02,98.55c-0.88-1.27-1.59-2.7-2.09-4.24h3.95
					C309.44,95.9,308.8,97.3,308.02,98.55z"/>
				<path class="st15" d="M293.65,92.78c0,3.21-0.11,7.59-1.57,10.62l1.68,0.94c0.97-2.02,1.39-4.74,1.59-7.33h2.98v4.94
					c0,0.31-0.11,0.39-0.37,0.42c-0.29,0-1.06,0.03-1.96-0.02l0.63,1.95c1.48,0.02,2.2-0.02,2.81-0.38
					c0.62-0.33,0.79-0.94,0.79-1.93V84.94h-6.57V92.78z M295.5,86.83h2.82v3.12h-2.82V86.83z M295.5,92.78v-0.92h2.82v3.23h-2.87
					C295.5,94.27,295.5,93.48,295.5,92.78z"/>
			</g>
			<path class="st15" d="M334.64,94.29h-1.94c-0.07,0.7-0.15,1.4-0.29,2.09h-3.5v1.71h3.09c-0.67,1.86-1.9,3.38-4.32,4.41l0.57,1.77
				c3.44-1.36,4.97-3.52,5.73-6.18h3.33c-0.31,2.68-0.64,3.84-1.01,4.19c-0.18,0.22-0.37,0.24-0.73,0.24s-1.24-0.03-2.1-0.12
				l0.62,1.9c0.99,0.07,1.92,0.04,2.43,0c0.62-0.07,1.06-0.24,1.48-0.68c0.64-0.66,1.06-2.37,1.45-6.43
				c0.04-0.26,0.04-0.81,0.04-0.81h-5.14C334.49,95.69,334.57,94.99,334.64,94.29z"/>
			<path class="st15" d="M326.46,96.9l1.41,0.7c0.44-0.92,0.84-2.22,1.21-3.53c0.22,0.33,0.46,0.72,0.57,1.01
				c1.87-0.5,3.64-1.21,5.2-2.22c1.37,0.88,2.89,1.54,4.58,1.97l1.19-1.58c-1.54-0.31-3-0.86-4.28-1.54
				c1.39-1.25,2.51-2.81,3.22-4.76l-1.1-0.59l-0.31,0.07h-4.81c0.35-0.55,0.66-1.14,0.93-1.73l-1.83-0.53
				c-0.9,2.06-2.49,4.04-4.23,5.29l1.59,1.12c0.46-0.37,0.93-0.79,1.35-1.27c0.64,0.9,1.39,1.73,2.23,2.46
				c-1.23,0.7-2.6,1.23-4.12,1.58c0.11-0.39,0.22-0.81,0.31-1.18l-1.26-0.44L328,91.83h-2.76l0.75-0.48
				c-0.15-0.22-0.38-0.46-0.62-0.72c1.43-1.25,3-3.05,3.88-4.63l-1.32-0.81l-0.33,0.07h-7.25v1.73h5.97
				c-0.59,0.86-1.34,1.76-2.09,2.46c-0.44-0.37-0.9-0.77-1.32-1.08l-1.5,0.9c0.9,0.72,1.94,1.73,2.6,2.57h-3.92v1.78h3.09
				c-0.82,2.04-1.64,3.67-2.94,4.86l0.71,2.24c1.12-1.08,2.03-2.73,2.85-4.61v5.77c0,0.26-0.09,0.31-0.35,0.33
				c-0.24,0-1.15,0-2.03-0.02l0.62,1.93c1.35,0,2.25-0.04,2.89-0.37c0.66-0.31,0.82-0.86,0.82-1.84V93.6h1.7
				C327.17,94.81,326.81,96.04,326.46,96.9z M332.37,88.14h4.76c-0.57,1.01-1.35,1.89-2.25,2.63
				C333.85,90,333.01,89.13,332.37,88.14z"/>
		</g>
		<g>
			<g>
				<path class="st15" d="M191.42,84.21h-2.26v3.85h-7.79v10.8h2.17v-1.31h5.62v7.04h2.26v-7.04h5.64v1.19h2.26V88.07h-7.9V84.21z
					 M189.16,90.19v5.24h-5.62v-5.24H189.16z M197.06,90.19v5.24h-5.64v-5.24H197.06z"/>
			</g>
			<g>
				<path class="st15" d="M224.51,89.42l-0.02-0.04l-2.09,0.79l0.03,0.06c1.63,2.9,3.5,7.08,4,9.9l0.01,0.07l2.3-0.91l0.04-0.02
					l-0.01-0.05C228.24,96.69,226.49,92.66,224.51,89.42z"/>
				<path class="st15" d="M213.84,90l-2.44-0.44l-0.01,0.06c-0.24,1.39-1.21,6.13-3.53,9l-0.05,0.06l0.07,0.03
					c0.53,0.19,1.42,0.68,1.96,1.08l0.04,0.03l0.03-0.04c1.99-2.53,3.22-6.68,3.91-9.72L213.84,90z"/>
				<path class="st15" d="M217.12,101.84c0,0.4-0.12,0.52-0.57,0.54c-0.43,0.02-2.04,0.02-3.58-0.04l-0.1,0l0.05,0.09
					c0.34,0.61,0.69,1.58,0.81,2.13l0.01,0.04l0.04,0c0.24,0,0.48,0,0.71,0c1.68,0,2.91-0.08,3.72-0.38
					c0.91-0.37,1.25-1.02,1.25-2.38V84.5h-2.35V101.84z"/>
			</g>
			<g>
				<polygon class="st15" points="247.5,97.1 253.65,97.1 253.65,95.15 247.5,95.15 247.5,90.3 245.22,90.3 245.22,102.01 
					241.61,102.01 241.61,94.09 239.49,94.09 239.49,102.01 236.86,102.01 236.86,104 255.67,104 255.67,102.01 247.5,102.01 				
					"/>
				<path class="st15" d="M247.43,85.64c0.05-0.06,0.09-0.12,0.13-0.18c0.12-0.17,0.24-0.32,0.35-0.49l0.03-0.05l-1.96-0.93
					l-0.03,0.04c-2.06,3.11-5.95,6.07-10.16,7.73l-0.08,0.03l0.07,0.06c0.5,0.46,1.08,1.17,1.41,1.74l0.03,0.04l0.05-0.02
					c3.45-1.57,6.63-3.86,8.94-6.45c3.07,3.38,6.19,5.11,9.09,6.47l0.05,0.03l0.02-0.06c0.25-0.65,0.84-1.36,1.31-1.77l0.07-0.06
					l-0.08-0.03C253.74,90.54,250.35,88.89,247.43,85.64z"/>
			</g>
			<g>
				<path class="st15" d="M277.12,99.49h6.81v-1.84h-8.72v-1.24h6.8v-1.66h-6.8v-1.22h7.83v-1.75h-4.65
					c0.35-0.58,0.78-1.28,1.17-1.99h4.29v-1.84h-3.14c0.52-0.76,1.15-1.79,1.78-2.93l0.03-0.06l-2.24-0.56l-0.02,0.05
					c-0.34,1.02-1.03,2.41-1.54,3.26l-0.04,0.06l0.56,0.18h-1.98v-3.78h-2.06v3.78h-2.08v-3.78h-2.04v3.78h-2.07l0.89-0.33
					l-0.02-0.05c-0.29-0.82-1.04-2.16-1.78-3.18l-0.02-0.03l-1.9,0.63l0.04,0.06c0.61,0.89,1.25,2.07,1.58,2.9h-3.25v1.84h4.47
					l0.04,0.06c0.36,0.6,0.71,1.35,0.9,1.93h-4.52v1.75h7.61v1.22h-6.53v1.66h6.53v1.24h-8.59v1.84h6.72
					c-1.88,1.28-4.65,2.41-7.29,2.97l-0.1,0.02l0.08,0.07c0.48,0.45,1.05,1.23,1.34,1.74l0.02,0.04l0.04-0.01
					c2.9-0.81,5.8-2.27,7.79-3.92v4.23h2.13v-4.38c2,1.79,4.85,3.28,7.85,4.09l0.04,0.01l0.02-0.04c0.31-0.56,0.91-1.39,1.36-1.82
					l0.08-0.08l-0.11-0.02C281.81,101.89,279.02,100.78,277.12,99.49z M272.26,91.69c-0.14-0.48-0.49-1.22-0.91-1.9h5.77
					c-0.32,0.79-0.65,1.49-0.92,1.99h-4.1l0.17-0.04L272.26,91.69z"/>
			</g>
		</g>
	</g>
</g>
</svg>
