<svg width="558" height="357" viewBox="0 0 558 357" fill="none" xmlns="http://www.w3.org/2000/svg">
<path fill-rule="evenodd" clip-rule="evenodd" d="M-245 44.5C-245 19.9233 -225.077 0 -200.5 0H71.5C96.0767 0 116 19.9233 116 44.5C116 69.0767 135.923 89 160.5 89H494.5C529.57 89 558 117.43 558 152.5C558 187.57 529.57 216 494.5 216H389.5C350.564 216 319 247.564 319 286.5C319 325.436 287.436 357 248.5 357H-184.5C-223.436 357 -255 325.436 -255 286.5C-255 247.564 -286.564 216 -325.5 216H-1153.5C-1188.57 216 -1217 187.57 -1217 152.5C-1217 117.43 -1188.57 89 -1153.5 89H-289.5C-264.923 89 -245 69.0767 -245 44.5Z" fill="#EFEFEF"/>
<circle cx="91.5714" cy="294.571" r="4.57143" fill="#D9D9D9"/>
<circle cx="91.5714" cy="309.429" r="4.57143" fill="#D9D9D9"/>
<circle cx="106.429" cy="294.571" r="4.57143" fill="#D9D9D9"/>
<circle cx="106.429" cy="309.429" r="4.57143" fill="#D9D9D9"/>
</svg>
