<svg width="623" height="286" viewBox="0 0 623 286" fill="none" xmlns="http://www.w3.org/2000/svg">
<path d="M-828 186C-828 241.229 -783.229 286 -728 286L48.0687 286C80.9757 286 107.652 259.324 107.652 226.417C107.652 193.51 134.328 166.833 167.235 166.833L539.583 166.833C585.653 166.833 623 129.486 623 83.4167C623 37.3469 585.653 -4.02755e-06 539.583 0L-728 0.000110816C-783.229 0.000115644 -828 44.7716 -828 100L-828 186Z" fill="#F5F5F5"/>
<circle cx="227.571" cy="166.571" r="4.57143" fill="#D9D9D9"/>
<circle cx="227.571" cy="181.429" r="4.57143" fill="#D9D9D9"/>
<circle cx="242.429" cy="166.571" r="4.57143" fill="#D9D9D9"/>
<circle cx="242.429" cy="181.429" r="4.57143" fill="#D9D9D9"/>
</svg>
