<svg width="473" height="357" viewBox="0 0 473 357" fill="none" xmlns="http://www.w3.org/2000/svg">
<path fill-rule="evenodd" clip-rule="evenodd" d="M-245 44.5C-245 19.9233 -225.077 0 -200.5 0H71.5C96.0767 0 116 19.9233 116 44.5C116 69.0767 135.923 89 160.5 89H409.5C444.57 89 473 117.43 473 152.5C473 187.57 444.57 216 409.5 216H304.5C265.564 216 234 247.564 234 286.5C234 325.436 202.436 357 163.5 357H-269.5C-308.436 357 -340 325.436 -340 286.5C-340 247.564 -371.564 216 -410.5 216H-1238.5C-1273.57 216 -1302 187.57 -1302 152.5C-1302 117.43 -1273.57 89 -1238.5 89H-289.5C-264.923 89 -245 69.0767 -245 44.5Z" fill="#EFEFEF"/>
<circle cx="91.5714" cy="294.571" r="4.57143" fill="#D9D9D9"/>
<circle cx="91.5714" cy="309.429" r="4.57143" fill="#D9D9D9"/>
<circle cx="106.429" cy="294.571" r="4.57143" fill="#D9D9D9"/>
<circle cx="106.429" cy="309.429" r="4.57143" fill="#D9D9D9"/>
</svg>
