<svg width="217" height="142" viewBox="0 0 217 142" fill="none" xmlns="http://www.w3.org/2000/svg">
<path d="M-288 79.993C-288 103.745 -268.867 123 -245.264 123L86.3929 123C100.456 123 111.856 111.527 111.856 97.375C111.856 83.2227 123.257 71.75 137.319 71.75L181.351 71.75C201.04 71.7499 217 55.6882 217 35.875C217 16.0618 201.04 -1.73213e-06 181.351 0L-245.264 6.92532e-05C-268.867 7.13297e-05 -288 19.2549 -288 43.007L-288 79.993Z" fill="#F5F5F5"/>
<circle cx="29.5714" cy="122.571" r="4.57143" fill="#D9D9D9"/>
<circle cx="29.5714" cy="137.429" r="4.57143" fill="#D9D9D9"/>
<circle cx="44.4286" cy="122.571" r="4.57143" fill="#D9D9D9"/>
<circle cx="44.4286" cy="137.429" r="4.57143" fill="#D9D9D9"/>
</svg>
