<svg width="148" height="357" viewBox="0 0 148 357" fill="none" xmlns="http://www.w3.org/2000/svg">
<path fill-rule="evenodd" clip-rule="evenodd" d="M-693 44.5C-693 19.9233 -673.077 0 -648.5 0H-376.5C-351.923 0 -332 19.9233 -332 44.5C-332 69.0767 -312.077 89 -287.5 89H46.5C81.5701 89 110 117.43 110 152.5C110 187.57 81.5701 216 46.5 216H-58.5C-97.436 216 -129 247.564 -129 286.5C-129 325.436 -160.564 357 -199.5 357H-632.5C-671.436 357 -703 325.436 -703 286.5C-703 247.564 -734.564 216 -773.5 216H-1601.5C-1636.57 216 -1665 187.57 -1665 152.5C-1665 117.43 -1636.57 89 -1601.5 89H-737.5C-712.923 89 -693 69.0767 -693 44.5Z" fill="#EFEFEF"/>
<circle cx="128.571" cy="183.571" r="4.57143" fill="#D9D9D9"/>
<circle cx="128.571" cy="198.429" r="4.57143" fill="#D9D9D9"/>
<circle cx="143.427" cy="183.571" r="4.57143" fill="#D9D9D9"/>
<circle cx="143.427" cy="198.429" r="4.57143" fill="#D9D9D9"/>
</svg>
