<svg width="1346" height="378" viewBox="0 0 1346 378" fill="none" xmlns="http://www.w3.org/2000/svg">
<path fill-rule="evenodd" clip-rule="evenodd" d="M1451 100C1451 44.7715 1406.23 0 1351 0H574.848C541.987 0 515.348 26.6391 515.348 59.5C515.348 92.3609 488.709 119 455.848 119H129.5C57.9791 119 0 176.979 0 248.5C0 320.021 57.9791 378 129.5 378H1321.5C1379.16 378 1428.01 340.322 1444.79 288.245C1445.21 286.918 1446.44 286 1447.84 286C1449.58 286 1451 284.584 1451 282.836V248.5V100Z" fill="#EFEFEF"/>
<circle cx="1132.57" cy="35.5714" r="4.57143" fill="#D9D9D9"/>
<circle cx="1132.57" cy="50.4286" r="4.57143" fill="#D9D9D9"/>
<circle cx="1147.43" cy="35.5714" r="4.57143" fill="#D9D9D9"/>
<circle cx="1147.43" cy="50.4286" r="4.57143" fill="#D9D9D9"/>
</svg>
