<svg width="250" height="154" viewBox="0 0 250 154" fill="none" xmlns="http://www.w3.org/2000/svg">
<path fill-rule="evenodd" clip-rule="evenodd" d="M656.155 76.7755C656.155 119.177 621.782 153.551 579.38 153.551H168.302C160.3 153.551 153.812 147.064 153.812 139.061C153.812 131.059 147.325 124.571 139.323 124.571H45.6333C20.8989 124.571 0.847656 104.52 0.847656 79.7858C0.847656 55.0514 20.8989 35.0002 45.6333 35.0002H136.312C145.977 35.0002 153.812 27.1652 153.812 17.5002C153.812 7.83516 161.648 0.00012207 171.313 0.00012207H579.38C621.782 0.00012207 656.155 34.3736 656.155 76.7755Z" fill="#EFEFEF"/>
<circle cx="204.571" cy="117.571" r="4.57143" fill="#D9D9D9"/>
<circle cx="204.571" cy="132.429" r="4.57143" fill="#D9D9D9"/>
<circle cx="219.427" cy="117.571" r="4.57143" fill="#D9D9D9"/>
<circle cx="219.427" cy="132.429" r="4.57143" fill="#D9D9D9"/>
</svg>
