<svg width="1346" height="378" viewBox="0 0 1346 378" fill="none" xmlns="http://www.w3.org/2000/svg">
<path fill-rule="evenodd" clip-rule="evenodd" d="M1718.65 100C1718.65 44.7715 1673.88 0 1618.65 0H842.5C809.639 0 783 26.6391 783 59.5C783 92.3609 756.361 119 723.5 119H129.5C57.9791 119 0 176.979 0 248.5C0 320.021 57.9791 378 129.5 378H1321.5C1353.46 378 1382.71 366.425 1405.3 347.239C1438.9 318.693 1475.65 286 1519.74 286H1618.65C1673.88 286 1718.65 241.228 1718.65 186V100Z" fill="#EFEFEF"/>
<circle cx="1214.57" cy="35.5714" r="4.57143" fill="#D9D9D9"/>
<circle cx="1214.57" cy="50.4286" r="4.57143" fill="#D9D9D9"/>
<circle cx="1229.43" cy="35.5714" r="4.57143" fill="#D9D9D9"/>
<circle cx="1229.43" cy="50.4286" r="4.57143" fill="#D9D9D9"/>
</svg>
