<svg width="1346" height="406" viewBox="0 0 1346 406" fill="none" xmlns="http://www.w3.org/2000/svg">
<path fill-rule="evenodd" clip-rule="evenodd" d="M1718.65 154C1718.65 98.7715 1673.88 54 1618.65 54H829.5C803.819 54 783 74.8188 783 100.5C783 126.181 762.181 147 736.5 147H129.5C57.9791 147 0 204.979 0 276.5C0 348.021 57.9791 406 129.5 406H1321.5C1348.97 406 1374.45 397.446 1395.4 382.856C1425.03 362.233 1456.72 340 1492.81 340H1618.65C1673.88 340 1718.65 295.228 1718.65 240V154Z" fill="#EFEFEF"/>
<circle cx="1214.57" cy="4.57143" r="4.57143" fill="#D9D9D9"/>
<circle cx="1214.57" cy="19.4286" r="4.57143" fill="#D9D9D9"/>
<circle cx="1229.43" cy="4.57143" r="4.57143" fill="#D9D9D9"/>
<circle cx="1229.43" cy="19.4286" r="4.57143" fill="#D9D9D9"/>
</svg>
