<svg width="380" height="634" viewBox="0 0 380 634" fill="none" xmlns="http://www.w3.org/2000/svg">
<path fill-rule="evenodd" clip-rule="evenodd" d="M1940 100C1940 44.7715 1895.23 0 1840 0H607C556.19 0 515 41.1898 515 92C515 142.81 473.81 184 423 184H100C44.7715 184 0 228.772 0 284V534C0 589.228 44.7715 634 100 634H621C644.196 634 663 615.196 663 592C663 568.804 681.804 550 705 550H1840C1895.23 550 1940 505.228 1940 450V100Z" fill="#F5F5F5"/>
<circle cx="340.571" cy="594.571" r="4.57143" fill="#D9D9D9"/>
<circle cx="340.571" cy="609.429" r="4.57143" fill="#D9D9D9"/>
<circle cx="355.429" cy="594.571" r="4.57143" fill="#D9D9D9"/>
<circle cx="355.429" cy="609.429" r="4.57143" fill="#D9D9D9"/>
</svg>
